SplineFontDB: 3.2
FontName: SomeTodhri
FullName: SomeTodhri
FamilyName: SomeTodhri
Weight: Regular
Copyright: (c) 2021 -2024 Mikhail Merkuryev\nSIL Open Font License 1.1
UComments: "2021-9-15: Created with FontForge (http://fontforge.org)+AAoACgAA-Auto-kerning: separation 210, min.kerning 30"
Version: 2.7.5
ItalicAngle: 0
UnderlinePosition: -125
UnderlineWidth: 50
Ascent: 800
Descent: 200
InvalidEm: 0
LayerCount: 2
Layer: 0 0 "+BBcEMAQ0BD0EOAQ5 +BD8EOwQwBD0A" 1
Layer: 1 0 "+BB8ENQRABDUENAQ9BDgEOQAA +BD8EOwQwBD0A" 0
XUID: [1021 59 1751208496 15025]
FSType: 0
OS2Version: 0
OS2_WeightWidthSlopeOnly: 0
OS2_UseTypoMetrics: 1
CreationTime: 1631732133
ModificationTime: 1723636154
PfmFamily: 33
TTFWeight: 400
TTFWidth: 5
LineGap: 0
VLineGap: 0
OS2TypoAscent: 1069
OS2TypoAOffset: 0
OS2TypoDescent: -293
OS2TypoDOffset: 0
OS2TypoLinegap: 0
OS2WinAscent: 1069
OS2WinAOffset: 0
OS2WinDescent: 389
OS2WinDOffset: 0
HheadAscent: 1069
HheadAOffset: 0
HheadDescent: -293
HheadDOffset: 0
OS2CapHeight: 714
OS2XHeight: 536
OS2Vendor: 'Merc'
OS2CodePages: 00000007.00000000
OS2UnicodeRanges: a82003c1.9205a186.01000008.00000000
Lookup: 260 0 0 "Common ABVM" { "Common ABVM-1"  } ['abvm' ('DFLT' <'dflt' > 'todr' <'dflt' > ) ]
Lookup: 260 0 0 "Common BLWM" { "Common BLWM-1"  } ['blwm' ('DFLT' <'dflt' > 'todr' <'dflt' > ) ]
Lookup: 262 0 0 "Common MKMK" { "Common MKMK-1"  } ['mkmk' ('DFLT' <'dflt' > 'todr' <'dflt' > ) ]
MarkAttachClasses: 1
DEI: 91125
ShortTable: maxp 16
  0
  0
  0
  0
  0
  0
  0
  2
  1
  2
  22
  0
  256
  0
  0
  0
EndShort
TtTable: prep
PUSHW_1
 511
SCANCTRL
PUSHB_1
 1
SCANTYPE
SVTCA[y-axis]
MPPEM
PUSHB_1
 8
LT
IF
PUSHB_2
 1
 1
INSTCTRL
EIF
PUSHB_2
 70
 6
CALL
IF
POP
PUSHB_1
 16
EIF
MPPEM
PUSHB_1
 20
GT
IF
POP
PUSHB_1
 128
EIF
SCVTCI
PUSHB_1
 6
CALL
NOT
IF
EIF
PUSHB_1
 20
CALL
EndTTInstrs
TtTable: fpgm
PUSHB_1
 0
FDEF
PUSHB_1
 0
SZP0
MPPEM
PUSHB_1
 42
LT
IF
PUSHB_1
 74
SROUND
EIF
PUSHB_1
 0
SWAP
MIAP[rnd]
RTG
PUSHB_1
 6
CALL
IF
RTDG
EIF
MPPEM
PUSHB_1
 42
LT
IF
RDTG
EIF

StartChar: uni25CC
Encoding: 9676 9676 0
Width: 594
Flags: MW
AnchorPoint: "TopRight" 594 560 basechar 0
AnchorPoint: "Dot below" 298 0 basechar 0
AnchorPoint: "Umlaut" 297 560 basechar 0
LayerCount: 2
Fore
SplineSet
323 514 m 0
 323 501.613087531 312.856578468 488.000720754 297 488 c 0
 283.493363611 488 271.00067529 500.493515398 271 514 c 0
 271 529.853910365 284.61087763 540 297 540 c 0
 311.795367282 540 323 528.800107615 323 514 c 0
239 496 m 0
 239 483.613087531 228.856578468 470.000720754 213 470 c 0
 199.493363611 470 187.00067529 482.493515398 187 496 c 0
 187 511.853910365 200.61087763 522 213 522 c 0
 227.795367282 522 239 510.800107615 239 496 c 0
407 496 m 0
 407 483.613087531 396.856578468 470.000720754 381 470 c 0
 367.493363611 470 355.00067529 482.493515398 355 496 c 0
 355 511.853910365 368.61087763 522 381 522 c 0
 395.795367282 522 407 510.800107615 407 496 c 0
481 449 m 0
 481 436.613087531 470.856578468 423.000720754 455 423 c 0
 441.493363611 423 429.00067529 435.493515398 429 449 c 0
 429 464.853910365 442.61087763 475 455 475 c 0
 469.795367282 475 481 463.800107615 481 449 c 0
165 449 m 0
 165 436.613087531 154.856578468 423.000720754 139 423 c 0
 125.493363611 423 113.00067529 435.493515398 113 449 c 0
 113 464.853910365 126.61087763 475 139 475 c 0
 153.795367282 475 165 463.800107615 165 449 c 0
118 375 m 0
 118 362.613087531 107.856578468 349.000720754 92 349 c 0
 78.4946887983 349 66.0000675329 361.492751456 66 375 c 0
 66 390.85502954 79.6123116192 401 92 401 c 0
 106.797580604 401 118 389.798096043 118 375 c 0
528 375 m 0
 528 362.613087531 517.856578468 349.000720754 502 349 c 0
 488.493363611 349 476.00067529 361.493515398 476 375 c 0
 476 390.853910365 489.61087763 401 502 401 c 0
 516.795367282 401 528 389.800107615 528 375 c 0
100 291 m 0
 100 278.613087531 89.856578468 265.000720754 74 265 c 0
 60.4946887983 265 48.0000675329 277.492751456 48 291 c 0
 48 306.85502954 61.6123116192 317 74 317 c 0
 88.7975806042 317 100 305.798096043 100 291 c 0
546 291 m 0
 546 278.613087531 535.856578468 265.000720754 520 265 c 0
 506.493363611 265 494.00067529 277.493515398 494 291 c 0
 494 306.853910365 507.61087763 317 520 317 c 0
 534.795367282 317 546 305.800107615 546 291 c 0
118 207 m 0
 118 194.613087531 107.856578468 181.000720754 92 181 c 0
 78.4946887983 181 66.0000675329 193.492751456 66 207 c 0
 66 222.85502954 79.6123116192 233 92 233 c 0
 106.797580604 233 118 221.798096043 118 207 c 0
528 207 m 0
 528 194.613087531 517.856578468 181.000720754 502 181 c 0
 488.493363611 181 476.00067529 193.493515398 476 207 c 0
 476 222.853910365 489.61087763 233 502 233 c 0
 516.795367282 233 528 221.800107615 528 207 c 0
165 133 m 0
 165 120.613087531 154.856578468 107.000720754 139 107 c 0
 125.493363611 107 113.00067529 119.493515398 113 133 c 0
 113 148.853910365 126.61087763 159 139 159 c 0
 153.795367282 159 165 147.800107615 165 133 c 0
481 133 m 0
 481 120.613087531 470.856578468 107.000720754 455 107 c 0
 441.493363611 107 429.00067529 119.493515398 429 133 c 0
 429 148.853910365 442.61087763 159 455 159 c 0
 469.795367282 159 481 147.800107615 481 133 c 0
239 86 m 0
 239 73.6139530663 228.856794356 60.0000720763 213 60 c 0
 199.492809795 60 187.000675283 72.4942770657 187 86 c 0
 187 101.855381456 200.612268465 112 213 112 c 0
 227.795367282 112 239 100.800107615 239 86 c 0
407 86 m 0
 407 73.6139530663 396.856794356 60.0000720763 381 60 c 0
 367.492809795 60 355.000675283 72.4942770657 355 86 c 0
 355 101.855381456 368.612268465 112 381 112 c 0
 395.795367282 112 407 100.800107615 407 86 c 0
323 68 m 0
 323 55.6139530663 312.856794356 42.0000720763 297 42 c 0
 283.492809795 42 271.000675283 54.4942770657 271 68 c 0
 271 83.8553814561 284.612268465 94 297 94 c 0
 311.795367282 94 323 82.8001076153 323 68 c 0
EndSplineSet
EndChar

StartChar: Uml.Diaeresis
Encoding: 776 776 1
Width: 0
HStem: 632 112<-305.272 -219.224 -115.272 -29.2245>
VStem: -313 102<639.598 737.123> -123 102<639.598 737.123>
AnchorPoint: "Umlaut mark" -166 744 basemark 0
AnchorPoint: "Umlaut mark" -164 594 mark 0
AnchorPoint: "Umlaut" -164 560 mark 0
LayerCount: 2
Fore
SplineSet
-21 688 m 256
 -21 664.98699099 -28.5741047689 632 -72 632 c 256
 -98.6871344162 632 -123 644.058314166 -123 688 c 256
 -123 701.315904139 -123 744 -72 744 c 256
 -44.5984741868 744 -21 731.401635367 -21 688 c 256
-211 688 m 256
 -211 664.98699099 -218.574104769 632 -262 632 c 256
 -288.687134416 632 -313 644.058314166 -313 688 c 256
 -313 701.315904139 -313 744 -262 744 c 256
 -234.598474187 744 -211 731.401635367 -211 688 c 256
EndSplineSet
EndChar

StartChar: u323
Encoding: 803 803 3
Width: 0
GlyphClass: 4
Flags: W
HStem: -183 124<-345.545 -252.622>
VStem: -356 114<-172.928 -68.9053>
AnchorPoint: "Dot below mark" -299 -172 basemark 0
AnchorPoint: "Dot below mark" -299 0 mark 0
AnchorPoint: "Dot below" -299 0 mark 0
LayerCount: 2
Fore
SplineSet
-242 -121 m 0
 -242 -142.390149919 -248.632617416 -183 -299 -183 c 0
 -323.302008235 -183 -356 -173.285276625 -356 -121 c 0
 -356 -87.2791625994 -342.909998227 -59 -299 -59 c 0
 -274.133827946 -59 -242 -69.0502110042 -242 -121 c 0
EndSplineSet
EndChar

StartChar: uni0361
Encoding: 865 865 4
Width: 0
HStem: 765 60<-166.988 167.938>
LayerCount: 2
Fore
SplineSet
-377 644 m 1
 -327.661613196 730.799013822 -234.265859819 825 0.5 825 c 0
 222.18455985 825 320.741986938 741.172931653 377 644 c 1
 332 644 l 1
 275.28125 724.666666667 164.763020833 765 0.4453125 765 c 0
 -163.872395833 765 -275.020833333 724.666666667 -333 644 c 1
 -377 644 l 1
EndSplineSet
EndChar

StartChar: Uml.Overline
Encoding: 773 773 6
Width: 0
HStem: 760 59<-204 204>
AnchorPoint: "Umlaut" 0 536 mark 0
AnchorPoint: "Umlaut mark" 0 704 mark 0
AnchorPoint: "Umlaut mark" 0 819 basemark 0
LayerCount: 2
Fore
SplineSet
-204 760 m 1
 -204 819 l 1
 204 819 l 1
 204 760 l 1
 -204 760 l 1
EndSplineSet
EndChar

StartChar: Todr.A
Encoding: 67008 67008 8
Width: 473
Flags: W
HStem: 0 21G<179.59 293.41>
AnchorPoint: "Dot below" 242 0 basechar 0
AnchorPoint: "TopRight" 473 536 basechar 0
AnchorPoint: "Umlaut" 241 536 basechar 0
LayerCount: 2
Fore
SplineSet
358 536 m 1
 433 536 l 1
 288 0 l 1
 185 0 l 1
 40 536 l 1
 144 536 l 1
 172 431 l 1
 358 536 l 1
262 85 m 1
 270.659793814 128 270.659793814 128 367 484 c 1
 185 381 l 1
 253.354385965 128 l 1
 262 85 l 1
EndSplineSet
EndChar

StartChar: Todr.As.part
Encoding: 1114150 -1 10
Width: 1000
HStem: 290.799 70.8521<485.167 601.381>
VStem: 397.073 266.524<350.204 375.622>
LayerCount: 2
Fore
SplineSet
663.59765625 382.723632812 m 1
 646.934745482 353.142064039 603.61332631 290.799261098 534.451382751 290.799261098 c 0
 485.802947237 290.799261098 440.010233716 310.523400628 397.073242188 349.971679688 c 1
 423.375976562 446.35546875 l 1
 465.59291663 389.886082388 505.593579726 361.651389207 543.377965849 361.651389207 c 0
 571.804168134 361.651389207 607.261838371 373.203465201 649.750976562 396.307617188 c 1
 663.59765625 382.723632812 l 1
EndSplineSet
EndChar

StartChar: Todr.N
Encoding: 67032 67032 11
Width: 473
Flags: W
HStem: 0 21G<179.59 293.41>
AnchorPoint: "Dot below" 243 0 basechar 0
AnchorPoint: "TopRight" 473 536 basechar 0
AnchorPoint: "Umlaut" 262 536 basechar 0
LayerCount: 2
Fore
SplineSet
381 536 m 1
 433 536 l 1
 288 0 l 1
 185 0 l 1
 40 536 l 1
 144 536 l 1
 253.418181818 128 l 1
 262 84 l 1
 270.654545455 128 l 1
 381 536 l 1
EndSplineSet
EndChar

StartChar: Todr.Njan.Part
Encoding: 1114151 -1 13
Width: 1000
HStem: 159.95 299.352
VStem: 537.426 62.6672<195.199 289.794>
LayerCount: 2
Fore
SplineSet
434.309570312 459.301757812 m 1
 491.4955465 435.001338344 600.092900555 375.193308708 600.092900555 271.424349997 c 4
 600.092900555 234.90792551 585.134524849 197.749873949 555.217773438 159.950195312 c 1
 535.26953125 162.999023438 l 1
 536.707009941 176.114882541 537.425749287 188.532744424 537.425749287 200.252609085 c 0
 537.425749287 254.19036784 524.811823661 330.096389677 407.270507812 360.655273438 c 1
 434.309570312 459.301757812 l 1
EndSplineSet
EndChar

StartChar: Todr.B
Encoding: 67010 67010 14
Width: 873
Flags: W
HStem: 0 21G<50 165 708 823> 497 50<335.014 534.018>
VStem: 50 115<0 226.942> 708 115<0 223.608>
AnchorPoint: "Dot below" 438 0 basechar 0
AnchorPoint: "TopRight" 873 537.4 basechar 0
AnchorPoint: "Umlaut" 437 536.4 basechar 0
LayerCount: 2
Fore
SplineSet
50 0 m 1
 50 475.205598519 258.218162584 547 437 547 c 0
 624.091423631 547 823 466.228197798 823 0 c 1
 708 0 l 1
 708 264.666666667 666 419 582 463 c 1
 459 141 l 1
 412 141 l 1
 289 463 l 1
 206.333333333 413 165 258.666666667 165 0 c 1
 50 0 l 1
536 483 m 1
 506 492.333333333 470.833333333 497 430.5 497 c 0
 390.166666667 497 358 492.666666667 334 484 c 1
 435 220 l 1
 536 483 l 1
EndSplineSet
EndChar

StartChar: Todr.OO
Encoding: 67059 67059 15
Width: 873
Flags: W
HStem: -11 50<339.785 535.658>
VStem: 50 115<312.28 536> 708 115<312.391 536>
AnchorPoint: "Dot below" 440 0 basechar 0
AnchorPoint: "TopRight" 873 536 basechar 0
AnchorPoint: "Umlaut" 439 517.4 basechar 0
LayerCount: 2
Fore
SplineSet
823 536 m 1
 823 69.770919383 624.090601087 -11 437 -11 c 0
 249.015429674 -11 50 69.4700161315 50 536 c 1
 165 536 l 1
 165 272 207.333333333 117.666666667 292 73 c 1
 415 395 l 1
 461 395 l 1
 584 73 l 1
 666.666666667 123 708 277.333333333 708 536 c 1
 823 536 l 1
338 53 m 1
 368 43.6666666667 403 39 443 39 c 0
 483 39 515 43.3333333333 539 52 c 1
 438 316 l 1
 338 53 l 1
EndSplineSet
EndChar

StartChar: Todr.G
Encoding: 67020 67020 16
Width: 573
Flags: W
HStem: 0 21G<75 177 403 503> 371 50<217.467 361.389>
VStem: 75 102<0 338.244 384 714> 403 100<0 327.316>
AnchorPoint: "Dot below" 290 0 basechar 0
AnchorPoint: "TopRight" 573 714 basechar 0
AnchorPoint: "Umlaut" 201 713 basechar 0
LayerCount: 2
Fore
SplineSet
310 371 m 0
 256.645699212 369.517936089 213.805883067 355.352157529 177 321 c 1
 177 0 l 1
 75 0 l 1
 75 714 l 1
 177 714 l 1
 177 384 l 1
 216.333333333 408.666666667 261.666666667 421 313 421 c 0
 402.408088141 421 503 361.959540064 503 238 c 2
 503 0 l 1
 403 0 l 1
 403 238 l 2
 403 281.333333333 393.666666667 314.333333333 375 337 c 0
 356.333333333 359.666666667 334.666666667 371 310 371 c 0
EndSplineSet
EndChar

StartChar: Todr.Ng.Part
Encoding: 1114152 -1 17
Width: 1000
HStem: 425.768 288.232
VStem: 112.736 323.59
LayerCount: 2
Fore
SplineSet
365.615234375 714 m 1
 436.326171875 714 l 1
 148.091796875 425.767578125 l 1
 112.736328125 461.123046875 l 1
 365.615234375 714 l 1
EndSplineSet
EndChar

StartChar: Todr.I
Encoding: 67026 67026 19
Width: 250
Flags: W
HStem: 0 21G<75 175>
VStem: 75 100<0 536>
AnchorPoint: "Dot below" 126 0 basechar 0
AnchorPoint: "TopRight" 250 536 basechar 0
AnchorPoint: "Umlaut" 127 536.4 basechar 0
LayerCount: 2
Fore
SplineSet
75 0 m 1
 75 536 l 1
 175 536 l 1
 175 0 l 1
 75 0 l 1
EndSplineSet
EndChar

StartChar: Todr.O
Encoding: 67034 67034 21
Width: 635
Flags: W
HStem: -10 50<266.591 399.846> 496 50<240.951 377.189>
VStem: 55 100<177.355 394.941> 480 100<136.405 368.532>
AnchorPoint: "Dot below" 333 0 basechar 0
AnchorPoint: "TopRight" 635 536 basechar 0
AnchorPoint: "Umlaut" 313 536 basechar 0
LayerCount: 2
Fore
SplineSet
55 280 m 0
 55 481.355468677 207.346385794 546 318.5 546 c 0
 389.5 546 449 524.333333333 497 481 c 0
 552.333333333 432.333333333 580 355.666666667 580 251 c 0
 580 64.4791104291 446.318167052 -10 322.5 -10 c 0
 267.987500583 -10 55 7.44007061956 55 280 c 0
480 238 m 0
 480 385.268756505 408.73228146 496 304 496 c 0
 274 496 242.666666667 481 210 451 c 0
 173.333333333 417 155 366 155 298 c 0
 155 143.422796645 238.440788461 40 343 40 c 0
 369.666666667 40 398 54.3333333333 428 83 c 0
 462.666666667 116.333333333 480 168 480 238 c 0
EndSplineSet
EndChar

StartChar: Todr.Mb
Encoding: 67011 67011 23
Width: 445
Flags: W
HStem: -10 50<212.344 320.54> 264 50<157 250.008> 674 50<240.141 303.995>
VStem: 55 100<136.469 264 314 471.315> 313 50<438.464 668.813> 355 50<73.6291 199.437>
AnchorPoint: "Dot below" 250 0 basechar 0
AnchorPoint: "TopRight" 445 704 basechar 0
AnchorPoint: "Umlaut" 279 703 basechar 0
LayerCount: 2
Fore
SplineSet
355 133.885678359 m 0xf4
 355 192.349637562 304.538024183 264.340820312 191.051757812 264.340820312 c 1
 157 264 l 1
 164.333333333 114.666666667 199.98217268 40 263.946518039 40 c 0
 309.564023459 40 355 76.3036296385 355 133.885678359 c 0xf4
279 674 m 0
 220.972883865 672.128157544 155 542.184521681 155 326 c 2
 155 314 l 1
 198 314 230 311.666666667 251 307 c 1
 292.333333333 424.333333333 313 515.666666667 313 581 c 0xf8
 313 643 301.666666667 674 279 674 c 0
280 724 m 0
 298.411748751 724 363 714.020388403 363 574 c 0xf8
 363 507.333333333 341.333333333 413 298 291 c 1
 332.108235199 275.193744664 403.392019167 230.870869137 405 136 c 0xf4
 405 78.8445606199 371.818323364 -10 253.448342747 -10 c 0
 121.149447582 -10 55 97.3333333333 55 312 c 0
 55 519.345043852 164.456276277 724 280 724 c 0
EndSplineSet
EndChar

StartChar: Todr.Ch
Encoding: 67013 67013 25
Width: 504
Flags: W
HStem: -240 50<255 314.827> 101 51<199.47 292.752> 496 50<181.15 306.801>
VStem: 55 89<223.085 427.664> 304 100<138.873 437.576> 339 100<-144.085 128.229>
AnchorPoint: "Dot below" 239 -236 basechar 0
AnchorPoint: "TopRight" 504 536 basechar 0
AnchorPoint: "Umlaut" 238 536 basechar 0
LayerCount: 2
Fore
SplineSet
144 339.726843417 m 0xf8
 144 217.00259902 201.41497712 152 239 152 c 0
 262.686171041 152 295.824900028 172.643641697 310 188 c 1
 306 219.333333333 304 251 304 283 c 0
 304 352.333333333 313.666666667 411 333 459 c 1
 295 483.666666667 262 496 234 496 c 0
 198.599110889 496 144 474.204208855 144 339.726843417 c 0xf8
55 302 m 0
 55 493.625167782 162.914897995 546 237.5 546 c 0
 272.5 546 312 532 356 504 c 1
 369.333333333 525.333333333 385.333333333 544.333333333 404 561 c 1
 420 557 l 1
 409.333333333 497.666666667 404 424.833333333 404 338.5 c 0xf8
 404 126.063993318 439 63.4082289042 439 -40 c 0
 439 -110 417.666666667 -163 375 -199 c 0
 342.333333333 -226.333333333 302.333333333 -240 255 -240 c 1
 255 -190 l 1
 334.456406604 -190 339 -130.095301892 339 -40.5 c 0xf4
 339 3.16666666667 332 60 318 130 c 1
 291.333333333 110.666666667 257.666666667 101 217 101 c 0
 128.602813952 101 55 140.297073354 55 302 c 0
EndSplineSet
EndChar

StartChar: Todr.Xh
Encoding: 67048 67048 26
Width: 504
Flags: W
HStem: -240 50<217.512 315.297> 101.963 50.037<197.909 293.104> 496 50<182.831 305.846>
VStem: 55 89<223.837 429.489> 157 50<-180.683 -60.9761> 304 100<136.441 437.576> 339 100<-141.899 87.0041>
AnchorPoint: "Dot below" 274 -226 basechar 0
AnchorPoint: "TopRight" 505 536 basechar 0
AnchorPoint: "Umlaut" 238 534 basechar 0
LayerCount: 2
Fore
SplineSet
144 336 m 0xfc
 144 219.84053817 200.374447097 152 239 152 c 0
 262.686171041 152 295.824900028 172.643641697 310 188 c 1
 306 219.333333333 304 251 304 283 c 0
 304 352.333333333 313.666666667 411 333 459 c 1
 293.666666667 483.666666667 261 496 235 496 c 0
 209 496 187.333333333 483.833333333 170 459.5 c 0
 152.666666667 435.166666667 144 394 144 336 c 0xfc
157 -123.5 m 0
 157 -73.1167907491 175.083199238 -15.6986672778 323 103 c 1
 318 130 l 1
 290.309099223 111.308641975 256.157978967 101.962962963 215.546639232 101.962962963 c 0
 141.212982862 101.962962963 55 127.267804544 55 302 c 0
 55 404 84.6666666667 475.666666667 144 517 c 0
 172 536.333333333 203.5 546 238.5 546 c 0
 273.5 546 312.666666667 532 356 504 c 1
 369.333333333 525.333333333 385.333333333 544.333333333 404 561 c 1
 420 557 l 1
 409.333333333 497.666666667 404 424.833333333 404 338.5 c 0xfc
 404 125.903544274 439 63.9575668371 439 -41 c 0xfa
 439 -193.925168182 328.181759765 -240 271 -240 c 0
 250.197150748 -240 157 -239.030827814 157 -123.5 c 0
332 46 m 1
 218.315129559 -48.7373920343 207 -93.0727984649 207 -129 c 0
 207 -169.666666667 226.333333333 -190 265 -190 c 0
 334.505720348 -190 339 -119.964046081 339 -58 c 0xfa
 339 -26 336.666666667 8.66666666667 332 46 c 1
EndSplineSet
EndChar

StartChar: Todr.Nxh.part
Encoding: 1114153 -1 27
Width: 1000
HStem: 518 74<510.848 560.094>
VStem: 569 50<358.832 511.477>
LayerCount: 2
Fore
SplineSet
370 130 m 1
 469.656966446 205.875190362 569 333.253837498 569 471 c 0
 569 483.882951357 554.101634489 518 533.5 518 c 0
 524.5 518 516.666666667 516 510 512 c 1
 503.333333333 522.666666667 500 531.333333333 500 538 c 0
 500 576.147748617 535.425816155 592 549 592 c 0
 595.666666667 592 619 553.833333333 619 477.5 c 0
 619 401.166666667 598 329.166666667 556 261.5 c 0
 514 193.833333333 462.333333333 136.666666667 401 90 c 1
 370 130 l 1
EndSplineSet
EndChar

StartChar: Todr.D
Encoding: 67014 67014 29
Width: 665
Flags: W
HStem: 0 21G<40 99.7087 512.291 625>
AnchorPoint: "Dot below" 316 0 basechar 0
AnchorPoint: "TopRight" 665 714 basechar 0
AnchorPoint: "Umlaut" 334 699 basechar 0
LayerCount: 2
Fore
SplineSet
385 714 m 1
 625 0 l 1
 519 0 l 1
 321.765354331 588 l 1
 306 647 l 1
 290.234645669 588 l 1
 93 0 l 1
 40 0 l 1
 280 714 l 1
 385 714 l 1
EndSplineSet
EndChar

StartChar: Todr.Nd
Encoding: 67015 67015 30
Width: 810
Flags: W
HStem: 0 21G<40 109.468 336.532 474.429 643.571 770>
AnchorPoint: "Dot below" 407 0 basechar 0
AnchorPoint: "TopRight" 810 536 basechar 0
AnchorPoint: "Umlaut" 405 536.4 basechar 0
LayerCount: 2
Fore
SplineSet
713 536 m 1
 770 536 l 1
 617 268 l 1
 770 0 l 1
 655 0 l 1
 559 168 l 1
 463 0 l 1
 348 0 l 1
 223 218 l 1
 98 0 l 1
 40 0 l 1
 194 268 l 1
 40 536 l 1
 155 536 l 1
 251 368 l 1
 348 536 l 1
 463 536 l 1
 588 318 l 1
 713 536 l 1
530 218 m 1
 376 486 l 1
 280 318 l 1
 434 50 l 1
 530 218 l 1
EndSplineSet
EndChar

StartChar: Todr.Dh
Encoding: 67016 67016 31
Width: 549
Flags: W
HStem: 0 50<175 384>
VStem: 75 100<121 714> 384 100<50 259>
AnchorPoint: "Dot below" 280 0 basechar 0
AnchorPoint: "TopRight" 549 714 basechar 0
AnchorPoint: "Umlaut" 160 714 basechar 0
LayerCount: 2
Fore
SplineSet
484 390 m 1
 484 0 l 1
 75 0 l 1
 75 714 l 1
 175 714 l 1
 175 121 l 1
 445 390 l 1
 484 390 l 1
384 50 m 1
 384 259 l 1
 175 50 l 1
 384 50 l 1
EndSplineSet
EndChar

StartChar: Todr.E
Encoding: 67018 67018 32
Width: 433
Flags: W
HStem: 0 21G<100 168.625> 672 52<67.2412 197.817>
VStem: 281 99<383.247 582.561>
AnchorPoint: "Dot below" 152 0 basechar 0
AnchorPoint: "TopRight" 433 714 basechar 0
AnchorPoint: "Umlaut" 185 710 basechar 0
LayerCount: 2
Fore
SplineSet
380 498 m 0
 380 464.08994709 380 401.714285714 290 232 c 1
 383 210 l 1
 372 161 l 1
 265 186 l 1
 260.333333333 177.333333333 255.333333333 168.666666667 250 160 c 2
 157 0 l 1
 100 0 l 1
 207 185 l 2
 209.666666667 189.666666667 212 194.333333333 214 199 c 1
 59 236 l 1
 71 284 l 1
 236 245 l 1
 266 316.333333333 281 396 281 484 c 0
 281 598.470106378 210.771706081 672 120 672 c 0
 95.3333333333 672 70.3333333333 664.666666667 45 650 c 1
 41.6666666667 655.333333333 40 662 40 670 c 0
 40 684.134502153 69.5213680955 724 167.5 724 c 0
 215.833333333 724 256.166666667 712.833333333 288.5 690.5 c 0
 331.101266517 661.074382921 380 610.335298606 380 498 c 0
EndSplineSet
EndChar

StartChar: Todr.F
Encoding: 67019 67019 33
Width: 667
Flags: W
HStem: -10 50<273.513 438.33> 602 32<501.012 525.062> 696 32<442.254 484.844>
VStem: 55 100<179.905 423.866> 323 93<426 476.849> 512 100<136.789 286.757>
AnchorPoint: "Dot below" 335 0 basechar 0
AnchorPoint: "TopRight" 667 719 basechar 0
AnchorPoint: "Umlaut" 425 723 basechar 0
LayerCount: 2
Fore
SplineSet
512 197.5 m 0
 512 219.60628531 505.548602816 376 323 376 c 1
 323 512.461323276 433.969383123 616.393876625 522 634 c 1
 536 602 l 1
 467.084341396 582.49556832 416 514.43251415 416 426 c 1
 510.420446782 426 612 351.204858747 612 226.667228075 c 0
 612 86.9629066885 474.944688615 -10 335.5 -10 c 0
 191.032694586 -10 55 76.7202440534 55 289.033274031 c 0
 55 495.352504973 188.940362626 681.376875872 482 728 c 1
 495 696 l 1
 303.034656487 649.341756785 155 509.022568913 155 300.86960588 c 0
 155 132.569742503 255.58269493 40 351 40 c 0
 380.510618778 40 512 48.3673700967 512 197.5 c 0
EndSplineSet
EndChar

StartChar: Todr.Gj
Encoding: 67022 67022 34
Width: 578
Flags: W
HStem: -240 50<222.359 376.047> 0 21G<75 177> 128 10<270 279.84> 351 50<202.686 320.871>
VStem: 75 102<0 326.192 364 714> 100 87<-154.236 -108.063> 345 100<193.629 328.767> 428 100<-124.336 35.0266>
AnchorPoint: "Dot below" 290 -231 basechar 0
AnchorPoint: "TopRight" 578 714 basechar 0
AnchorPoint: "Umlaut" 193 712 basechar 0
LayerCount: 2
Fore
SplineSet
270 138 m 1xf5
 321.421798124 155.937836555 345 182.918757563 345 250 c 0
 345 317.333333333 319.666666667 351 269 351 c 0
 233 351 202.333333333 335.666666667 177 305 c 1
 177 0 l 1
 75 0 l 1
 75 714 l 1
 177 714 l 1
 177 364 l 1
 205.666666667 388.666666667 236.333333333 401 269 401 c 0
 372.677490401 401 445 345.6972228 445 254 c 0xfa
 445 198.986218951 398.805863545 158.14792111 357 152 c 1
 357 145 l 1
 427.343029888 145 528 75.9922678151 528 -37 c 0
 528 -87.6666666667 508.5 -134.166666667 469.5 -176.5 c 0
 430.5 -218.833333333 366.333333333 -240 277 -240 c 0
 244.793455731 -240 100 -234.574343588 100 -137 c 0
 100 -90.4077901314 142.146972821 -67 187 -67 c 1
 187 -153.732937052 220.812598139 -190 299.5 -190 c 0
 323.492487969 -190 428 -182.781344751 428 -57 c 0
 428 19.5516931544 376.688101484 128 270 128 c 1
 270 138 l 1xf5
EndSplineSet
EndChar

StartChar: Todr.H
Encoding: 67024 67024 36
Width: 512
Flags: W
HStem: -10 48<264.028 427.955> 496 50<266.458 414.058>
VStem: 55 100<202.407 335.602>
AnchorPoint: "Dot below" 314 0 basechar 0
AnchorPoint: "TopRight" 512 536 basechar 0
AnchorPoint: "Umlaut" 314 536 basechar 0
LayerCount: 2
Fore
SplineSet
314 -10 m 0
 242.850502205 -10 55 14.0453383071 55 268 c 0
 55 413.506042428 188.714401553 546 314 546 c 0
 361.333333333 546 414 529.333333333 472 496 c 1
 458 467 l 1
 449.430680251 474.85520977 410.114720025 496 349 496 c 0
 294.361372432 496 208.476641546 459.815557182 171 375 c 1
 413 287 l 1
 413 249 l 1
 178 163 l 1
 201.0268398 108.089843553 256.064888161 38 342 38 c 0
 376.666666667 38 415.333333333 45 458 59 c 1
 472 28 l 1
 410 2.66666666667 357.333333333 -10 314 -10 c 0
166 201 m 1
 348 268 l 1
 159 337 l 1
 156.333333333 324.333333333 155 311.333333333 155 298 c 0
 155 262 158.666666667 229.666666667 166 201 c 1
EndSplineSet
EndChar

StartChar: Todr.Hj
Encoding: 67025 67025 37
Width: 512
Flags: W
HStem: -10 50<97.9423 245.542> 498 48<84.0454 247.972>
VStem: 357 100<200.398 333.593>
AnchorPoint: "Dot below" 203 0 basechar 0
AnchorPoint: "TopRight" 512 536 basechar 0
AnchorPoint: "Umlaut" 198 536 basechar 0
LayerCount: 2
Fore
SplineSet
198 546 m 0
 269.149497795 546 457 521.954661693 457 268 c 0
 457 122.493957572 323.285598447 -10 198 -10 c 0
 150.666666667 -10 98 6.66666666667 40 40 c 1
 54 69 l 1
 62.569319749 61.1447902301 101.885279975 40 163 40 c 0
 217.638627568 40 303.523358454 76.1844428181 341 161 c 1
 99 249 l 1
 99 287 l 1
 334 373 l 1
 310.9731602 427.910156447 255.935111839 498 170 498 c 0
 135.333333333 498 96.6666666667 491 54 477 c 1
 40 508 l 1
 102 533.333333333 154.666666667 546 198 546 c 0
346 335 m 1
 164 268 l 1
 353 199 l 1
 355.666666667 211.666666667 357 224.666666667 357 238 c 0
 357 274 353.333333333 306.333333333 346 335 c 1
EndSplineSet
EndChar

StartChar: Todr.K
Encoding: 67028 67028 38
Width: 422
Flags: W
HStem: -10 50<269.428 367> 496 50<268.855 367>
VStem: 55 100<174.873 367.214>
AnchorPoint: "Dot below" 264 0 basechar 0
AnchorPoint: "TopRight" 422 536 basechar 0
AnchorPoint: "Umlaut" 277 536.4 basechar 0
LayerCount: 2
Fore
SplineSet
348 -10 m 0
 212.851787461 -10 55 66.9791027698 55 268.5 c 0
 55 416.443689683 196.846742011 546 349 546 c 0
 355 546 361 545.666666667 367 545 c 1
 367 495 l 1
 361 495.666666667 351.666666667 496 339 496 c 0
 304.333333333 496 265.666666667 479 223 445 c 0
 177.666666667 408.333333333 155 356.666666667 155 290 c 0
 155 147.778473877 240.26343376 40 348 40 c 0
 354 40 360.333333333 40.3333333333 367 41 c 1
 367 -9 l 1
 360.333333333 -9.66666666667 354 -10 348 -10 c 0
EndSplineSet
EndChar

StartChar: Todr.J
Encoding: 67027 67027 39
Width: 422
Flags: W
HStem: -10 50<55 153.145> 496 50<55 152.572>
VStem: 267 100<168.786 361.127>
AnchorPoint: "Dot below" 150 0 basechar 0
AnchorPoint: "TopRight" 422 536 basechar 0
AnchorPoint: "Umlaut" 156 536.4 basechar 0
LayerCount: 2
Fore
SplineSet
74 546 m 0
 209.148212539 546 367 469.02089723 367 267.5 c 0
 367 119.556310317 225.153257989 -10 73 -10 c 0
 67 -10 61 -9.66666666667 55 -9 c 1
 55 41 l 1
 61 40.3333333333 70.3333333333 40 83 40 c 0
 117.666666667 40 156.333333333 57 199 91 c 0
 244.333333333 127.666666667 267 179.333333333 267 246 c 0
 267 388.221526123 181.73656624 496 74 496 c 0
 68 496 61.6666666667 495.666666667 55 495 c 1
 55 545 l 1
 61.6666666667 545.666666667 68 546 74 546 c 0
EndSplineSet
EndChar

StartChar: Todr.L
Encoding: 67029 67029 40
Width: 543
Flags: W
HStem: -10 50<241.75 368> 315 50<221.857 368>
VStem: 55 100<111.893 250.134> 368 100<-242 -10 40 315 365 537>
AnchorPoint: "Dot below" 360 -242 basechar 0
AnchorPoint: "TopRight" 545 536 basechar 0
AnchorPoint: "Umlaut" 366 536 basechar 0
LayerCount: 2
Fore
SplineSet
348 -10 m 2
 154.454142214 -10 55 42.7450732582 55 171 c 0
 55 277.914075908 157.512498199 363.886038001 348 365 c 1
 368 365 l 1
 368 537 l 1
 468 537 l 1
 468 -242 l 1
 368 -242 l 1
 368 -10 l 1
 348 -10 l 2
155 191 m 0
 155 51.0973484632 301.509974644 40 348 40 c 2
 368 40 l 1
 368 315 l 1
 348 315 l 2
 193.679808446 315 155 258.57282504 155 191 c 0
EndSplineSet
EndChar

StartChar: Todr.LL
Encoding: 67030 67030 41
Width: 521
Flags: W
HStem: 155 50<175 346> 320 50<175 346>
VStem: 75 100<-240 155 205 320 370 536> 346 100<-240 155 205 320 370 536>
AnchorPoint: "Dot below" 266 -232 basechar 0
AnchorPoint: "TopRight" 519 536 basechar 0
AnchorPoint: "Umlaut" 259 536 basechar 0
LayerCount: 2
Fore
SplineSet
75 -240 m 1
 75 536 l 1
 175 536 l 1
 175 370 l 1
 346 370 l 1
 346 536 l 1
 446 536 l 1
 446 -240 l 1
 346 -240 l 1
 346 155 l 1
 175 155 l 1
 175 -240 l 1
 75 -240 l 1
346 320 m 1
 175 320 l 1
 175 205 l 1
 346 205 l 1
 346 320 l 1
EndSplineSet
EndChar

StartChar: Todr.M
Encoding: 67031 67031 42
Width: 573
Flags: W
HStem: -10 50<237.965 378.751> 445 50<236.369 367.156>
VStem: 55 99<140.408 346.933> 368 100<484 714> 431 87<94.5825 144.182>
AnchorPoint: "Dot below" 304 0 basechar 0
AnchorPoint: "TopRight" 573 714 basechar 0
AnchorPoint: "Umlaut" 361 702 basechar 0
LayerCount: 2
Fore
SplineSet
55 226.887756269 m 0xe8
 55 401.825253814 167.186718499 495 293.441652101 495 c 0
 319.813884034 495 344.666666667 491.333333333 368 484 c 1
 368 714 l 1
 468 714 l 1
 468 432 l 1xf0
 392 432 l 1
 372.666666667 440.666666667 349.103098959 445 321.309296878 445 c 0
 193.115299194 445 154 337.152383729 154 246.510621588 c 0
 154 134.350698706 215.415205647 40 308.39484275 40 c 0
 378.869531545 40 431 90.030467283 431 185 c 1
 478.866562838 185 518 159.827904556 518 113.41779315 c 0
 518 44.3947327668 430.177178585 -10 300.98849045 -10 c 0
 89.7780164992 -10 55 122.001159596 55 226.887756269 c 0xe8
EndSplineSet
EndChar

StartChar: Todr.P
Encoding: 67035 67035 43
Width: 707
Flags: W
HStem: 0 50<175 532>
VStem: 75 100<121 536> 532 100<50 407>
AnchorPoint: "Dot below" 372 0 basechar 0
AnchorPoint: "TopRight" 707 536 basechar 0
AnchorPoint: "Umlaut" 374 536.4 basechar 0
LayerCount: 2
Fore
SplineSet
632 0 m 1
 75 0 l 1
 75 536 l 1
 175 536 l 1
 175 121 l 1
 602 547 l 1
 632 547 l 1
 632 0 l 1
532 407 m 1
 175 50 l 1
 532 50 l 1
 532 407 l 1
EndSplineSet
EndChar

StartChar: Todr.Q
Encoding: 67036 67036 44
Width: 696
Flags: W
HStem: -240 50<387 481.6> 496 50<214.4 309>
VStem: 55 100<283.241 422.772> 541 100<-116.772 22.759>
AnchorPoint: "Dot below" 359 -234 basechar 0
AnchorPoint: "TopRight" 695 536 basechar 0
AnchorPoint: "Umlaut" 381 536 basechar 0
LayerCount: 2
Fore
SplineSet
309 496 m 1
 233.482842465 496 155 470.306725037 155 363.5 c 0
 155 268.917614443 244.115508576 184.585832712 335 178 c 1
 566 536 l 1
 625 536 l 1
 393 176 l 1
 513.666666667 167.333333333 591.333333333 124 626 46 c 0
 636 23.3333333333 641 -0.666666666667 641 -26 c 0
 641 -162.48201804 517.163197338 -240 387 -240 c 1
 387 -190 l 1
 462.517157535 -190 541 -164.306725037 541 -57.5 c 0
 541 37.0823855567 451.884491424 121.414167288 361 128 c 1
 130 -230 l 1
 70 -230 l 1
 303 130 l 1
 182.333333333 138.666666667 104.666666667 182 70 260 c 0
 60 282.666666667 55 306.666666667 55 332 c 0
 55 468.48201804 178.836802662 546 309 546 c 1
 309 496 l 1
EndSplineSet
EndChar

StartChar: Todr.R
Encoding: 67037 67037 45
Width: 386
Flags: W
VStem: 65 100<369.317 536> 241 100<181.755 283.864>
AnchorPoint: "Dot below" 151 -11 basechar 0
AnchorPoint: "TopRight" 386 536 basechar 0
AnchorPoint: "Umlaut" 150 536.4 basechar 0
LayerCount: 2
Fore
SplineSet
241 221 m 0
 241 285.920955268 202.141845351 322.15213901 65 331 c 1
 65 536 l 1
 165 536 l 1
 165 372 l 1
 205.666666667 368 245.166666667 357 283.5 339 c 0
 321.833333333 321 341 293.333333333 341 256 c 0
 341 129.888727697 143.141430215 6.05939856051 99 -20 c 1
 47 0 l 1
 49.4049210443 1.69235184599 241 137.782906187 241 221 c 0
EndSplineSet
EndChar

StartChar: Todr.Rr
Encoding: 67038 67038 46
Width: 460
Flags: W
HStem: -240 50<27.5334 61.5266> 168 50<175 257.006> 496 50<175 255.331>
VStem: 75 100<-172.826 168 218 496> 310 100<279.748 443.817>
AnchorPoint: "Dot below" 173 -220 basechar 0
AnchorPoint: "TopRight" 459 536 basechar 0
AnchorPoint: "Umlaut" 199 536 basechar 0
LayerCount: 2
Fore
SplineSet
175 218 m 1
 215.847036048 218 310 230.328271154 310 344 c 0
 310 465.916936661 252.093535468 496 175 496 c 1
 175 218 l 1
410 368.5 m 0
 410 253.848055166 321.932598098 168 175 168 c 1
 175 -45 l 2
 175 -133 156 -191.333333333 118 -220 c 0
 100.666666667 -233.333333333 82.1666666667 -240 62.5 -240 c 0
 51.5568563832 -240 -2 -237.569989479 -2 -190 c 1
 56.2691973561 -190 75 -173.440597184 75 -102 c 2
 75 546 l 1
 125 546 l 2
 269.95021118 546 410 516.867344305 410 368.5 c 0
EndSplineSet
EndChar

StartChar: Todr.S
Encoding: 67039 67039 47
Width: 472
Flags: W
HStem: -10 48<175.328 303.12> 499 46<174.851 296.441>
VStem: 55 93.1953<63.8714 181.161> 76 72<424.089 470.818> 315.788 94.2119<367.246 479.948> 354 63<89.9819 129.368>
AnchorPoint: "Dot below" 247 0 basechar 0
AnchorPoint: "TopRight" 472 536 basechar 0
AnchorPoint: "Umlaut" 250 536 basechar 0
LayerCount: 2
Fore
SplineSet
354 165 m 1xe4
 392.364273899 165 417 135.552710802 417 95.5032901442 c 0
 417 55.6633615363 400.035809816 28.1194976937 366.107429449 12.8716986162 c 0
 332.179049082 -2.37610046127 294.482106453 -10 253.016601562 -10 c 0
 121.005533854 -10 55 42.3333333333 55 147 c 0xe4
 55 197.654527185 72.2549292363 236.559505121 106.764787709 263.71493381 c 0
 199.996432792 337.077891576 315.788085938 333.049332992 315.788085938 419 c 0
 315.788085938 472.333333333 289.880533855 499 238.065429688 499 c 0
 178.021809896 499 148 463.666666667 148 393 c 1
 125.992476784 393 76 398.96704086 76 453.186831341 c 0
 76 479.797737948 92.8744885551 545 258.277103926 545 c 0
 296.988884295 545 410 533.469962487 410 398.838964095 c 0xd8
 410 355.250249886 400.061003544 295.014567949 272.355695809 240.225467771 c 0
 196.945388651 207.872365567 148.1953125 186.684488671 148.1953125 124.180314827 c 0
 148.1953125 40.6550020309 225.048607079 38 234.8203125 38 c 0
 303.599851784 38 354 90.1678393949 354 165 c 1xe4
EndSplineSet
EndChar

StartChar: Todr.Sh
Encoding: 67040 67040 48
Width: 536
Flags: W
HStem: 0 21G<30 101.583 379.667 506> 674 50<230.359 321.673>
VStem: 125 84<486.967 652.759> 352 50<477.598 643.202>
AnchorPoint: "Dot below" 253 13 basechar 0
AnchorPoint: "TopRight" 536 714 basechar 0
AnchorPoint: "Umlaut" 272 713 basechar 0
LayerCount: 2
Fore
SplineSet
125 560 m 0
 125 676.380000441 201.604795205 724 263 724 c 0
 334.935389807 724 402 662.859592159 402 569 c 0
 402 518.333333333 385 466.333333333 351 413 c 2
 309 347 l 1
 506 0 l 1
 391 0 l 1
 255 240 l 1
 249 268 l 1
 246 268 l 1
 240 240 l 1
 89 0 l 1
 30 0 l 1
 220 301 l 1
 187 360 l 2
 145.666666667 434 125 500.666666667 125 560 c 0
352 567 m 0
 352 627.544995889 320.618678691 674 274 674 c 0
 229.558608405 674 209 625.732170809 209 585 c 0
 209 541.210286459 224.333333333 491.876953125 255 437 c 2
 274 403 l 1
 280 376 l 1
 283 376 l 1
 289 403 l 1
 311 440 l 2
 317.619578357 450.90283494 352 510.259749498 352 567 c 0
EndSplineSet
EndChar

StartChar: Todr.Sht.part
Encoding: 1114154 -1 50
Width: 1000
HStem: 0 21G<480.518 530.518>
VStem: 480.518 50<0 512.881>
LayerCount: 2
Fore
SplineSet
336.794921875 712.2890625 m 1
 438.73494079 668.81871784 530.517578125 555.75126408 530.517578125 378.975585938 c 2
 530.517578125 0 l 1
 480.517578125 0 l 1
 480.517578125 385.58203125 l 2
 480.517578125 452.652990528 465.029241399 512.597032482 434.052567946 565.414157113 c 0
 403.075894494 618.231281744 365.105897887 654.226692914 320.142578125 673.400390625 c 1
 336.794921875 712.2890625 l 1
EndSplineSet
EndChar

StartChar: Todr.T
Encoding: 67042 67042 51
Width: 415
Flags: W
HStem: 0 21G<240 340> 224 50<162.193 240> 674 50<145.767 217.629>
VStem: 55 50<352.245 615.726> 240 100<0 224 274 651.04>
AnchorPoint: "Dot below" 232 -2 basechar 0
AnchorPoint: "TopRight" 415 714 basechar 0
AnchorPoint: "Umlaut" 203 709 basechar 0
LayerCount: 2
Fore
SplineSet
55 484 m 0
 55 573.340016415 74.1075230771 724 203 724 c 0
 300.367727169 724 340 638.960261427 340 550 c 2
 340 0 l 1
 240 0 l 1
 240 224 l 1
 210 224 l 2
 136.862355992 224 55 299.365893086 55 484 c 0
105 475 m 0
 105 355.521492286 151.996302563 274 210 274 c 2
 240 274 l 1
 240 567 l 2
 240 580.546037982 237.971808151 674 182 674 c 0
 124.533628656 674 105 550.846289426 105 475 c 0
EndSplineSet
EndChar

StartChar: Todr.Ca.part
Encoding: 1114155 -1 52
Width: 1000
HStem: 0 50<395 573>
VStem: 395 178<0 50>
LayerCount: 2
Fore
SplineSet
395 50 m 5
 573 50 l 5
 573 0 l 5
 395 0 l 5
 395 50 l 5
EndSplineSet
EndChar

StartChar: Todr.Th
Encoding: 67043 67043 53
Width: 502
Flags: W
HStem: -14 50<213.492 277.078> 216 77<85.1496 141.812> 674 50<189.561 319.589>
VStem: 106 44<610.155 634.602> 158.975 49.025<40.1496 160.93> 281 50.037<38.6721 129.128> 362 100<464.665 630.014>
AnchorPoint: "Dot below" 249 0 basechar 0
AnchorPoint: "TopRight" 502 714 basechar 0
AnchorPoint: "Umlaut" 262 708 basechar 0
LayerCount: 2
Fore
SplineSet
40 216 m 1
 40 290.221630628 112.932058054 293 114 293 c 0
 141.333333333 293 175 279.333333333 215 252 c 1
 243.197908737 295.863413591 278.941634507 341.022926037 312.5 390 c 0
 329.783202173 415.224132901 362 472.980022054 362 553 c 0
 362 620.875817283 322.091700526 674 260 674 c 0
 241.627599164 674 160.108205466 668.952208099 150 580 c 1
 111.633665306 588.221357435 106 626.813905874 106 638 c 0
 106 638.265143701 108.135243587 724 262 724 c 0
 395.333333333 724 462 670.333333333 462 563 c 0
 462 485.666666667 421.666666667 408 341 330 c 0
 303.666666667 293.333333333 275 257.333333333 255 222 c 1
 276.110487786 203.28843128 331.037037037 154.603535354 331.037037037 73.4562289562 c 0
 331.037037037 19.9274079283 288.116811063 -14 249 -14 c 0
 194.639343064 -14 158.975 21.4080823924 158.975 76.1425 c 0
 158.975 110.004166667 165.65 144.29 179 179 c 1
 128.333333333 203 82 215.333333333 40 216 c 1
246 36 m 0
 278.584995317 36 281 67.6238642828 281 77 c 0
 281 107 261.666666667 135.333333333 223 162 c 1
 213 134.666666667 208 110 208 88 c 0
 208 53.3333333333 220.666666667 36 246 36 c 0
EndSplineSet
EndChar

StartChar: Todr.V
Encoding: 67045 67045 54
Width: 408
Flags: W
HStem: -14 50<216.022 280> 674 50<210.609 292.045>
VStem: 54.9956 100.004<160.202 287.451 334 527.951> 313 50<461.697 653.521>
AnchorPoint: "Dot below" 257 0 basechar 0
AnchorPoint: "TopRight" 407 714 basechar 0
AnchorPoint: "Umlaut" 257 715 basechar 0
LayerCount: 2
Fore
SplineSet
54.9955947137 345.808806691 m 0
 54.9955947137 616.346132689 160.274148155 724 257 724 c 0
 283.666666667 724 308 710.666666667 330 684 c 0
 352 657.333333333 363 616 363 560 c 0
 363 533.937318893 355.944792022 346.067837417 155 281 c 1
 157.579849375 159.747079361 173.785052732 36 280 36 c 1
 280 -14 l 1
 129.997063142 -14 54.9955947137 105.936268897 54.9955947137 345.808806691 c 0
155 334 m 1
 309.957774098 393.288191829 313 541.455704036 313 553 c 0
 313 633.666666667 292.333333333 674 251 674 c 0
 188.333333333 674 156.333333333 560.666666667 155 334 c 1
EndSplineSet
EndChar

StartChar: Todr.X
Encoding: 67046 67046 55
Width: 526
Flags: W
HStem: 486 50<50 198 252 364>
AnchorPoint: "Dot below" 183 -224 basechar 0
AnchorPoint: "TopRight" 526 536 basechar 0
AnchorPoint: "Umlaut" 262 536 basechar 0
LayerCount: 2
Fore
SplineSet
50 536 m 1
 481 536 l 1
 481 506 l 1
 159 -240 l 1
 50 -240 l 1
 248 219 l 1
 51 322 l 1
 198 486 l 1
 50 486 l 1
 50 536 l 1
252 486 m 1
 143 365 l 1
 280 293 l 1
 364 486 l 1
 252 486 l 1
EndSplineSet
EndChar

StartChar: Todr.Nx
Encoding: 67047 67047 56
Width: 531
Flags: W
HStem: 0 50<182 481> 486 50<50 198 252 346>
AnchorPoint: "Dot below" 276 0 basechar 0
AnchorPoint: "TopRight" 531 536 basechar 0
AnchorPoint: "Umlaut" 269 536 basechar 0
LayerCount: 2
Fore
SplineSet
50 536 m 1
 481 536 l 1
 481 506 l 1
 182 50 l 1
 481 50 l 1
 481 0 l 1
 50 0 l 1
 50 30 l 1
 192 249 l 1
 51 322 l 1
 198 486 l 1
 50 486 l 1
 50 536 l 1
252 486 m 1
 143 365 l 1
 236 316 l 1
 346 486 l 1
 252 486 l 1
EndSplineSet
EndChar

StartChar: Todr.Y
Encoding: 67050 67050 57
Width: 583
Flags: W
HStem: -10 50<134.773 241.631> 246 100<167.514 288>
VStem: 50 50<75.2174 191.392> 288 100<91.052 229 343 714> 483 50<13.342 170.277>
AnchorPoint: "Dot below" 294 -102 basechar 0
AnchorPoint: "TopRight" 583 743 basechar 0
AnchorPoint: "Umlaut" 340 714 basechar 0
LayerCount: 2
Fore
SplineSet
354 -81 m 1
 383.497202112 -67.4603006699 483 -13.5226785256 483 98 c 0
 483 141.285103549 458.608459252 203.324196636 388 229 c 1
 388 147 l 2
 388 80.449628776 316.880199257 -10 219 -10 c 0
 111.469826772 -10 50 71.9019959879 50 150 c 0
 50 247.548897638 128.353471283 346 227 346 c 0
 251.666666667 346 272 345 288 343 c 1
 288 714 l 1
 388 714 l 1
 388 321 l 1
 475.405874402 286.037650239 533 212.52267697 533 95 c 0
 533 5.58863702185 474.579247997 -80.6206242204 375 -127 c 1
 354 -81 l 1
177 40 m 0
 254.68548142 40 288 109.37512297 288 179 c 2
 288 246 l 1
 237.499537925 246 100 236.581155507 100 134 c 4
 100 93.9702703365 137.477199938 40 177 40 c 0
EndSplineSet
EndChar

StartChar: Todr.Jy.part
Encoding: 1114156 -1 59
Width: 1000
VStem: 172.01 100<239.35 714>
LayerCount: 2
Fore
SplineSet
172.009765625 239.349609375 m 1
 172.009765625 714 l 1
 272.009765625 714 l 1
 272.009765625 239.349609375 l 1
 172.009765625 239.349609375 l 1
EndSplineSet
EndChar

StartChar: Todr.St
Encoding: 67055 67055 60
Width: 577
Flags: W
HStem: -10 50<194.939 363.492> 445 50<206.414 336.243> 664 50<205 483>
VStem: 55 87<94.9109 145.78> 105 100<478 664> 418 99<130.109 344.943>
AnchorPoint: "Dot below" 274 0 basechar 0
AnchorPoint: "TopRight" 577 714 basechar 0
AnchorPoint: "Umlaut" 305 714 basechar 0
LayerCount: 2
Fore
SplineSet
279.389759657 40 m 0xf4
 369.616399162 40 418 82.2587921127 418 216.489875147 c 0
 418 286.829958382 403.398283873 343.638687755 374.194851618 386.916063265 c 0
 348.064950539 425.638687755 306.714783091 445 250.144349274 445 c 0
 223.381449758 445 200 440.666666667 180 432 c 1
 105 432 l 1
 105 714 l 1
 483 714 l 1
 483 664 l 1
 205 664 l 1
 205 478 l 1xec
 243 489.333333333 278.0982127 495 310.2946381 495 c 0
 372.764879367 495 422.253039303 474.162459557 458.759117909 432.487378671 c 0
 497.586372636 388.162459557 517 327.480544223 517 250.44163267 c 0
 517 168.795833054 491.065129742 -10 263.898267027 -10 c 0
 141.581592414 -10 55 45.7887085563 55 113.639956552 c 0
 55 157.901428716 84.5531786394 179.656109641 142 185 c 1
 142 88.3333333333 187.796586552 40 279.389759657 40 c 0xf4
EndSplineSet
EndChar

StartChar: Todr.Gh
Encoding: 67054 67054 61
Width: 645
Flags: W
HStem: 0 21G<263.277 381.723>
AnchorPoint: "Dot below" 328 0 basechar 0
AnchorPoint: "TopRight" 645 714 basechar 0
AnchorPoint: "Umlaut" 362 714 basechar 0
LayerCount: 2
Fore
SplineSet
270 0 m 1
 30 714 l 1
 136 714 l 1
 193 545 l 1
 362 714 l 1
 512 564 l 1
 562 714 l 1
 615 714 l 1
 375 0 l 1
 270 0 l 1
484 479 m 1
 334 629 l 1
 207 502 l 1
 339.264648438 108 l 1
 349 67 l 1
 358.787109375 108 l 1
 484 479 l 1
EndSplineSet
EndChar

StartChar: Todr.Z
Encoding: 67052 67052 62
Width: 689
Flags: W
HStem: 0 21G<149 321.803> 599 50<410.259 442.536> 674 50<154.675 232>
VStem: 25 100<513.494 644.358> 149 100<75 436> 360 50<538.844 598.404> 447 50<410.723 483.212 532 596.932> 626 48<584.817 601.896>
AnchorPoint: "Dot below" 231 1 basechar 0
AnchorPoint: "TopRight" 689 714 basechar 0
AnchorPoint: "Umlaut" 340 714 basechar 0
LayerCount: 2
Fore
SplineSet
410 577 m 0
 410 553.666666667 422.333333333 538.666666667 447 532 c 1
 447 576.666666667 439.333333333 599 424 599 c 0
 414.666666667 599 410 591.666666667 410 577 c 0
442 481 m 1
 418.957098018 485.982249077 360 505.697244855 360 577 c 0
 360 619.882141202 391.272896279 649 422 649 c 0
 425.485293423 649 497 647.904580717 497 558 c 2
 497 531 l 1
 556.866894859 541.884889974 617.725463829 585.418212764 626 613 c 1
 674 600 l 1
 659.250862757 546.366773662 571.155969692 487.226944178 493 479 c 1
 473.874007517 328.542192466 394.606625412 200.039008743 249 0 c 1
 149 0 l 1
 149 436 l 1
 87.9477028812 436 25 508.192438193 25 576 c 0
 25 653.480349352 102.320221871 724 232 724 c 1
 232 674 l 1
 193.968605648 674 125 663.217049501 125 585 c 0
 125 521.951717536 167.110614492 462 249 462 c 1
 249 75 l 1
 274.887308108 138.280086487 415.502783745 287.948853002 442 481 c 1
EndSplineSet
EndChar

StartChar: Todr.Zh
Encoding: 67053 67053 63
Width: 579
Flags: W
HStem: -10 50<185.447 357.101> 674 50<264.843 333.922>
VStem: 50 49<153.144 206> 169 88<559.166 668.099> 341 50<543.28 667.373> 418 101<113.69 297.258>
AnchorPoint: "Dot below" 294 0 basechar 0
AnchorPoint: "TopRight" 579 714 basechar 0
AnchorPoint: "Umlaut" 279 710 basechar 0
LayerCount: 2
Fore
SplineSet
273 40 m 0
 332.128797854 40 418 63.4981758252 418 200 c 0
 418 309.696257718 353.97187174 363.773205814 304 405 c 1
 143 99 l 1
 173.666666667 59.6666666667 217 40 273 40 c 0
341 616 m 0
 341 654.666666667 327 674 299 674 c 0
 271 674 257 652.333333333 257 609 c 0
 257 588.333333333 274.666666667 559.333333333 310 522 c 1
 330.666666667 565.333333333 341 596.666666667 341 616 c 0
519 209 m 0
 519 76.5085176415 413.553257596 -10 309 -10 c 0
 221 -10 157 10.3333333333 117 51 c 1
 84 -12 l 1
 40 12 l 1
 85 96 l 1
 65.4428274428 135.114345114 58.4324324324 149.135135135 50 205 c 1
 99 212 l 1
 103 190 108 170 114 152 c 1
 265 437 l 1
 263.666666667 438.333333333 258.666666667 442.333333333 250 449 c 0
 196 491.666666667 169 541.333333333 169 598 c 0
 169 647.608461618 197.817549267 724 280 724 c 0
 353.333333333 724 390.333333333 689 391 619 c 2
 391 618 l 2
 391 585.333333333 376.666666667 541.666666667 348 487 c 1
 352.666666667 483 362 475.333333333 376 464 c 0
 431.265253693 418.937562373 519 347.4 519 209 c 0
EndSplineSet
EndChar

StartChar: Todr.Skan
Encoding: 67056 67056 64
Width: 535
Flags: W
HStem: -10 50<186.222 352.058> 496 50<199.991 335.01>
VStem: 50 100<75.7921 192.771> 70.5908 100<364.43 467.08> 358.245 100<353.638 472.557> 385.998 100<71.9682 171.925>
AnchorPoint: "Dot below" 272 0 basechar 0
AnchorPoint: "TopRight" 535 536 basechar 0
AnchorPoint: "Umlaut" 262 536.4 basechar 0
LayerCount: 2
Fore
SplineSet
337.3828125 289.209960938 m 1xd8
 376.669507851 273.381257244 485.998046875 229.296494405 485.998046875 144.30859375 c 0
 485.998046875 119.461130883 479.32202678 68.7806504041 430.2734375 31.712890625 c 0
 403.13883188 11.2063060813 340.599285169 -10 277.03515625 -10 c 0
 232.837608283 -10 162.786611374 -10 95.9697265625 36.5654296875 c 0
 65.3232421875 57.9228515625 50 90.6282552083 50 134.681640625 c 0xe4
 50 189.137194325 82.2954593464 229.555556929 183.395507812 271.030273438 c 1
 108.192382812 307.698242187 70.5908203125 353.652669271 70.5908203125 408.893554688 c 0
 70.5908203125 424.510157387 74.5672056579 472.966079882 120.837890625 508.103515625 c 0
 145.362907363 526.727536435 202.035040173 546 259.309570312 546 c 0
 298.853944371 546 360.320887151 546 418.41796875 503.421875 c 0
 444.969401042 483.962890625 458.245117188 455.066080729 458.245117188 416.731445312 c 0
 458.245117188 351.635002893 408.141502963 320.109230491 337.3828125 289.209960938 c 1xd8
272.572265625 496 m 0
 173.543196081 496 170.590820312 422.045378547 170.590820312 413.227539062 c 0
 170.590820312 371.472133334 199.94081743 346.567242408 286.352539062 311.934570312 c 1
 334.342861779 333.589991718 358.245117188 361.606355614 358.245117188 406.595703125 c 0xd8
 358.245117188 446.889973969 343.662804084 496 272.572265625 496 c 0
237.112304688 245.275390625 m 1
 232.241992453 242.84509709 150 200.879445122 150 138.28515625 c 0
 150 119.251953125 156.341796875 99.6982421872 169.025390625 79.6240234375 c 0
 185.716145834 53.2080078125 221.461914063 40 276.262695312 40 c 0
 280.61789116 40 385.998046875 40.8909353271 385.998046875 127.106445312 c 0xe4
 385.998046875 168.893554687 336.369466146 208.283203125 237.112304688 245.275390625 c 1
EndSplineSet
EndChar

StartChar: Todr.Ps
Encoding: 67058 67058 65
Width: 707
Flags: W
HStem: -270 50<246.499 435.974> 0 50<175 532>
VStem: 75 100<121 536> 100 87<-157.879 -108.063> 532 100<-135.013 0 50 407>
AnchorPoint: "Dot below" 328 -256 basechar 0
AnchorPoint: "TopRight" 707 536 basechar 0
AnchorPoint: "Umlaut" 366 537 basechar 0
LayerCount: 2
Fore
SplineSet
532 407 m 1xe8
 175 50 l 1
 532 50 l 1
 532 407 l 1xe8
187 -67 m 1xd8
 187 -128.752021844 208.055000903 -220 332.5 -220 c 0
 382.166666667 -220 426.666666667 -207.333333333 466 -182 c 0
 510 -154.133463541 532 -108.133463541 532 -44 c 2
 532 0 l 1
 75 0 l 1
 75 536 l 1
 175 536 l 1
 175 121 l 1xe8
 602 547 l 1
 632 547 l 1
 632 -21 l 2
 632 -187 529.333333333 -270 324 -270 c 0
 250.666666667 -270 195 -257.333333333 157 -232 c 0
 119 -206.666666667 100 -175 100 -137 c 0
 100 -90.4077901314 142.146972821 -67 187 -67 c 1xd8
EndSplineSet
EndChar

StartChar: Todr.Kh
Encoding: 67057 67057 66
Width: 549
Flags: W
HStem: 0 21G<40 107.98 388.532 509>
AnchorPoint: "Dot below" 269 0 basechar 0
AnchorPoint: "TopRight" 549 714 basechar 0
AnchorPoint: "Umlaut" 288 714 basechar 0
LayerCount: 2
Fore
SplineSet
432 714 m 1
 489 714 l 1
 318.238356164 402.969863014 l 1
 509 0 l 1
 398 0 l 1
 258.632876712 294.402739726 l 1
 97 0 l 1
 40 0 l 1
 232.24109589 350.153424658 l 1
 60 714 l 1
 171 714 l 1
 291.846575342 458.720547945 l 1
 432 714 l 1
EndSplineSet
EndChar

StartChar: Uml.Grave
Encoding: 768 768 67
Width: 0
Flags: W
HStem: 606 160
VStem: -430 194
AnchorPoint: "Umlaut mark" -333 766 basemark 0
AnchorPoint: "Umlaut mark" -333 536 mark 0
AnchorPoint: "Umlaut" -333 536 mark 0
LayerCount: 2
Fore
SplineSet
-323 766 m 1
 -306.202713037 730.306341876 -270.348735222 664.276111006 -236 619 c 1
 -236 606 l 1
 -274 606 l 1
 -335.123506221 648.317068254 -401.593049734 718.854911793 -430 756 c 1
 -430 766 l 1
 -323 766 l 1
EndSplineSet
EndChar

StartChar: Mod.Acute
Encoding: 180 180 68
Width: 274
Flags: W
HStem: 606 160
VStem: 40 194
LayerCount: 2
Fore
SplineSet
234 756 m 1
 212.848525439 726.035411038 138.130996934 646.08733129 78 606 c 1
 40 606 l 1
 40 619 l 1
 74.7458512962 664.801349436 110.62457163 731.202214713 127 766 c 1
 234 766 l 1
 234 756 l 1
EndSplineSet
EndChar

StartChar: Mod.DotAbove
Encoding: 729 729 70
Width: 194
Flags: W
HStem: 636 124<50.4548 143.378>
VStem: 40 114<646.072 750.095>
LayerCount: 2
Fore
SplineSet
154 698 m 0
 154 676.609850081 147.367382584 636 97 636 c 0
 72.6979917649 636 40 645.714723375 40 698 c 0
 40 731.720837401 53.0900017731 760 97 760 c 0
 121.866172054 760 154 749.949788996 154 698 c 0
EndSplineSet
EndChar

StartChar: Mod.Macron
Encoding: 713 713 72
Width: 370
Flags: W
HStem: 616 59<40 330>
VStem: 40 290<616 675>
LayerCount: 2
Fore
SplineSet
40 616 m 1
 40 675 l 1
 330 675 l 1
 330 616 l 1
 40 616 l 1
EndSplineSet
EndChar

StartChar: Uml.InvBreve
Encoding: 785 785 73
Width: 0
HStem: 674 69<-67.4259 68.0778>
VStem: -140 46<606 647.7> 94 46<606 648.025>
AnchorPoint: "Umlaut mark" 0 743 basemark 0
AnchorPoint: "Umlaut mark" 0 536 mark 0
AnchorPoint: "Umlaut" 0 536 mark 0
LayerCount: 2
Fore
SplineSet
0 674 m 0
 -54.471720478 674 -84.2993237105 649.653043303 -94 606 c 1
 -140 606 l 1
 -138.747577737 641.067823372 -124.406553906 743 0 743 c 0
 47.3333333333 743 82.3333333333 729.5 105 702.5 c 0
 127.666666667 675.5 139.333333333 643.333333333 140 606 c 1
 94 606 l 1
 84.2956781877 649.669448155 54.4533655503 674 0 674 c 0
EndSplineSet
EndChar

StartChar: Uml.Double.Macron
Encoding: 862 862 74
Width: 0
GlyphClass: 4
HStem: 606 59<-295 295>
AnchorPoint: "Umlaut mark" 0 665 basemark 0
AnchorPoint: "TopRight" 0 536 mark 0
LayerCount: 2
Fore
SplineSet
-295 606 m 1
 -295 665 l 1
 295 665 l 1
 295 606 l 1
 -295 606 l 1
EndSplineSet
EndChar
